<svg width="198" height="70" viewBox="0 0 198 70" fill="none" xmlns="http://www.w3.org/2000/svg">
<path d="M33.55 15.5V51H26.7V35.85H10.6V51H3.7V15.5H10.6V29.85H26.7V15.5H33.55ZM51.8014 51.5C49.6681 51.5 47.7514 51.15 46.0514 50.45C44.3514 49.7167 42.9014 48.7167 41.7014 47.45C40.5347 46.1833 39.6347 44.7333 39.0014 43.1C38.3681 41.4667 38.0514 39.75 38.0514 37.95C38.0514 36.1167 38.3681 34.3833 39.0014 32.75C39.6347 31.1167 40.5347 29.6667 41.7014 28.4C42.9014 27.1333 44.3514 26.15 46.0514 25.45C47.7514 24.7167 49.6681 24.35 51.8014 24.35C53.9347 24.35 55.8347 24.7167 57.5014 25.45C59.2014 26.15 60.6514 27.1333 61.8514 28.4C63.0514 29.6667 63.9514 31.1167 64.5514 32.75C65.1847 34.3833 65.5014 36.1167 65.5014 37.95C65.5014 39.75 65.1847 41.4667 64.5514 43.1C63.9514 44.7333 63.0514 46.1833 61.8514 47.45C60.6847 48.7167 59.2514 49.7167 57.5514 50.45C55.8514 51.15 53.9347 51.5 51.8014 51.5ZM44.9514 37.95C44.9514 39.4833 45.2514 40.85 45.8514 42.05C46.4514 43.2167 47.2681 44.1333 48.3014 44.8C49.3347 45.4667 50.5014 45.8 51.8014 45.8C53.0681 45.8 54.2181 45.4667 55.2514 44.8C56.2847 44.1 57.1014 43.1667 57.7014 42C58.3347 40.8 58.6514 39.4333 58.6514 37.9C58.6514 36.4 58.3347 35.05 57.7014 33.85C57.1014 32.65 56.2847 31.7167 55.2514 31.05C54.2181 30.3833 53.0681 30.05 51.8014 30.05C50.5014 30.05 49.3347 30.4 48.3014 31.1C47.2681 31.7667 46.4514 32.7 45.8514 33.9C45.2514 35.0667 44.9514 36.4167 44.9514 37.95ZM85.168 49.65C84.6014 49.8833 83.918 50.15 83.118 50.45C82.318 50.75 81.4514 50.9833 80.518 51.15C79.618 51.35 78.7014 51.45 77.768 51.45C76.5347 51.45 75.4014 51.2333 74.368 50.8C73.3347 50.3667 72.5014 49.6833 71.868 48.75C71.268 47.7833 70.968 46.5333 70.968 45V29.95H67.518V24.8H70.968V16.3H77.668V24.8H83.168V29.95H77.668V42.75C77.7014 43.65 77.9514 44.3 78.418 44.7C78.8847 45.1 79.468 45.3 80.168 45.3C80.868 45.3 81.5514 45.1833 82.218 44.95C82.8847 44.7167 83.418 44.5167 83.818 44.35L85.168 49.65ZM100.35 51.5C98.2495 51.5 96.3495 51.15 94.6495 50.45C92.9495 49.7167 91.4995 48.7333 90.2995 47.5C89.0995 46.2333 88.1662 44.8 87.4995 43.2C86.8662 41.5667 86.5495 39.85 86.5495 38.05C86.5495 35.55 87.0995 33.2667 88.1995 31.2C89.3329 29.1333 90.9329 27.4833 92.9995 26.25C95.0995 24.9833 97.5662 24.35 100.4 24.35C103.266 24.35 105.716 24.9833 107.75 26.25C109.783 27.4833 111.333 29.1333 112.4 31.2C113.5 33.2333 114.05 35.4333 114.05 37.8C114.05 38.2 114.033 38.6167 114 39.05C113.966 39.45 113.933 39.7833 113.9 40.05H93.6495C93.7829 41.3833 94.1662 42.55 94.7995 43.55C95.4662 44.55 96.2995 45.3167 97.2995 45.85C98.3329 46.35 99.4329 46.6 100.6 46.6C101.933 46.6 103.183 46.2833 104.35 45.65C105.55 44.9833 106.366 44.1167 106.8 43.05L112.55 44.65C111.916 45.9833 111 47.1667 109.8 48.2C108.633 49.2333 107.25 50.05 105.65 50.65C104.05 51.2167 102.283 51.5 100.35 51.5ZM93.4995 35.8H107.2C107.066 34.4667 106.683 33.3167 106.05 32.35C105.45 31.35 104.65 30.5833 103.65 30.05C102.65 29.4833 101.533 29.2 100.3 29.2C99.0995 29.2 97.9995 29.4833 96.9995 30.05C96.0329 30.5833 95.2329 31.35 94.5995 32.35C93.9995 33.3167 93.6329 34.4667 93.4995 35.8ZM117.916 14.5H124.616V42.6C124.616 43.8 124.816 44.6167 125.216 45.05C125.616 45.45 126.166 45.65 126.866 45.65C127.4 45.65 127.95 45.5833 128.516 45.45C129.083 45.3167 129.583 45.15 130.016 44.95L130.916 50.05C130.016 50.4833 128.966 50.8167 127.766 51.05C126.566 51.2833 125.483 51.4 124.516 51.4C122.416 51.4 120.783 50.85 119.616 49.75C118.483 48.6167 117.916 47.0167 117.916 44.95V14.5Z" fill="white"/>
<circle cx="162.319" cy="34.3201" r="26.2166" stroke="white" stroke-width="1.5" stroke-linecap="round" stroke-linejoin="round"/>
<path d="M180.553 53.916L190.832 64.1677" stroke="white" stroke-width="1.5" stroke-linecap="round" stroke-linejoin="round"/>
<path d="M152.59 47V22.15H157.42V47H152.59ZM172.701 46.055C172.305 46.2183 171.826 46.405 171.266 46.615C170.706 46.825 170.1 46.9883 169.446 47.105C168.816 47.245 168.175 47.315 167.521 47.315C166.658 47.315 165.865 47.1633 165.141 46.86C164.418 46.5567 163.835 46.0783 163.391 45.425C162.971 44.7483 162.761 43.8733 162.761 42.8V32.265H160.346V28.66H162.761V22.71H167.451V28.66H171.301V32.265H167.451V41.225C167.475 41.855 167.65 42.31 167.976 42.59C168.303 42.87 168.711 43.01 169.201 43.01C169.691 43.01 170.17 42.9283 170.636 42.765C171.103 42.6017 171.476 42.4617 171.756 42.345L172.701 46.055Z" fill="white"/>
<path d="M16.0126 31.0411V28.2299C16.0125 27.5149 16.569 26.9339 17.2584 26.9291H19.7837C20.4764 26.9291 21.0379 27.5115 21.0379 28.2299V28.2299V31.0498C21.0378 31.6569 21.505 32.1531 22.0902 32.1673H23.7737C25.452 32.1673 26.8125 30.7563 26.8125 29.0157V29.0157V21.0187C26.8035 20.3339 26.4935 19.6909 25.9707 19.2726L20.213 14.4622C19.2043 13.6246 17.7704 13.6246 16.7617 14.4622L11.0293 19.2813C10.5045 19.6979 10.194 20.342 10.1875 21.0274V29.0157C10.1875 30.7563 11.548 32.1673 13.2263 32.1673H14.9098C15.5096 32.1673 15.9957 31.6631 15.9957 31.0411V31.0411" stroke="white" stroke-width="1.5" stroke-linecap="round" stroke-linejoin="round"/>
</svg>
